<?xml version="1.0" encoding="UTF-8"?><svg id="b" xmlns="http://www.w3.org/2000/svg" viewBox="0 0 24 24"><defs><style>.c{fill:#020202;stroke-width:0px;}</style></defs><path class="c" d="m18.53,2.45H5.47c-1.67,0-3.02,1.35-3.02,3.02v13.06c0,1.67,1.35,3.02,3.02,3.02h13.06c1.67,0,3.02-1.35,3.02-3.02V5.47c0-1.67-1.35-3.02-3.02-3.02Zm-2.05,4.56l-.09.58c-.04.26-.27.46-.54.46h-4.44c-.8,0-1.26.39-1.4,1.18l-.74,4.16c-.07.4.04.75.35,1.06.31.31.68.46,1.11.46h1.21l.46-2.52c.05-.26.27-.44.53-.44h1.9c.33,0,.59.3.53.63l-.77,4.68h0l-.36,2.16c-.05.32-.33.56-.66.56h-1.72c-.36,0-.64-.32-.58-.68l.44-2.64h-2.45c-.81,0-1.51-.28-2.08-.84-.58-.56-.86-1.23-.86-2.01,0-.17.01-.34.04-.51l.8-4.61c.12-.7.44-1.26.98-1.68.53-.42,1.16-.63,1.9-.63h5.93c.33,0,.59.3.54.63Z"/></svg>