<?xml version="1.0" encoding="UTF-8"?><svg id="a" xmlns="http://www.w3.org/2000/svg" viewBox="0 0 24 24"><defs><style>.c{fill:none;stroke:#000;stroke-linecap:round;stroke-linejoin:round;}</style></defs><path class="c" d="m8.15,12.06c.81,1.67,2.15,3.01,3.82,3.81.25.12.54.1.77-.06l2.45-1.64c.22-.15.5-.18.74-.07l4.59,1.97h0c.32.13.51.47.47.81-.15,1.13-.7,2.18-1.56,2.93-.86.76-1.96,1.17-3.11,1.17-3.53,0-6.93-1.4-9.42-3.9-2.5-2.5-3.9-5.89-3.9-9.42,0-1.14.42-2.25,1.17-3.11.76-.86,1.8-1.41,2.93-1.56.35-.04.68.15.81.47l1.97,4.6h0c.1.24.08.52-.06.74l-1.64,2.49c-.15.23-.17.52-.05.76Zm5.74-5.28c.8.21,1.53.63,2.11,1.22.58.59,1.01,1.31,1.22,2.11m-2.52-6.36c2.71.73,4.82,2.84,5.55,5.55"/></svg>