<?xml version="1.0" encoding="UTF-8"?><svg id="a" xmlns="http://www.w3.org/2000/svg" viewBox="0 0 24 24"><defs><style>.c{stroke-width:0px;}</style></defs><path class="c" d="m22.04,5.54H2.04c-.28,0-.5.22-.5.5v11.74c0,.28.22.5.5.5h20c.28,0,.5-.22.5-.5V6.04c0-.28-.22-.5-.5-.5Zm-.5,11.74H2.54V6.54h19v10.74Z"/><path class="c" d="m5.1,15.62h13.87c.76,0,1.37-.61,1.37-1.37s-.62-1.37-1.37-1.37H5.1c-.76,0-1.37.62-1.37,1.37s.62,1.37,1.37,1.37Zm13.87-1.74c.21,0,.37.17.37.37s-.17.37-.37.37h-9.36c.05-.11.09-.24.09-.37s-.04-.26-.09-.37h9.36Z"/><path class="c" d="m5.81,11.5h0c.91,0,1.65-.74,1.65-1.65s-.74-1.65-1.65-1.65h0c-.91,0-1.65.74-1.65,1.65s.74,1.65,1.65,1.65Z"/><path class="c" d="m8.87,9.66h4.19c.28,0,.5-.22.5-.5s-.22-.5-.5-.5h-4.19c-.28,0-.5.22-.5.5s.22.5.5.5Z"/><path class="c" d="m17.37,9.66h2.04c.28,0,.5-.22.5-.5s-.22-.5-.5-.5h-2.04c-.28,0-.5.22-.5.5s.22.5.5.5Z"/><path class="c" d="m8.87,11.05h10.55c.28,0,.5-.22.5-.5s-.22-.5-.5-.5h-10.55c-.28,0-.5.22-.5.5s.22.5.5.5Z"/></svg>